<svg width="155" height="20" viewBox="0 0 155 20" fill="none" xmlns="http://www.w3.org/2000/svg">
<path d="M10 20C4.477 20 0 15.523 0 10C0 4.477 4.477 0 10 0C15.523 0 20 4.477 20 10C20 15.523 15.523 20 10 20Z" fill="#707170"/>
<path d="M38 20C32.477 20 28 15.523 28 10C28 4.477 32.477 0 38 0C43.523 0 48 4.477 48 10C48 15.523 43.523 20 38 20ZM38 8.586L35.172 5.757L33.757 7.172L36.586 10L33.757 12.828L35.172 14.243L38 11.414L40.828 14.243L42.243 12.828L39.414 10L42.243 7.172L40.828 5.757L38 8.586Z" fill="#FF0000"/>
<path d="M66 20C60.477 20 56 15.523 56 10C56 4.477 60.477 0 66 0C71.523 0 76 4.477 76 10C76 15.523 71.523 20 66 20ZM65.003 14L72.073 6.929L70.659 5.515L65.003 11.172L62.174 8.343L60.76 9.757L65.003 14Z" fill="#24A700"/>
<path d="M94 20C88.477 20 84 15.523 84 10C84 4.477 88.477 0 94 0C99.523 0 104 4.477 104 10C104 15.523 99.523 20 94 20Z" fill="#707170"/>
<path d="M122 20C116.477 20 112 15.523 112 10C112 4.477 116.477 0 122 0C127.523 0 132 4.477 132 10C132 15.523 127.523 20 122 20Z" fill="#707170"/>
</svg>
