<svg width="10" height="13" viewBox="0 0 10 13" fill="none" xmlns="http://www.w3.org/2000/svg">
<path d="M4.79344 6.03205C4.93492 6.03205 5.04244 5.98374 5.12168 5.89317L7.45331 3.3934C7.55518 3.29076 7.59479 3.17 7.59479 3.03112C7.59479 2.89828 7.54386 2.76544 7.45331 2.66883L5.12168 0.144914C5.04244 0.0483047 4.92926 0 4.79344 0C4.53877 0 4.34635 0.217371 4.34635 0.495123C4.34635 0.621923 4.39162 0.742685 4.47085 0.839294L5.98189 2.42127C5.65931 2.36089 5.33107 2.32466 5.00283 2.32466C2.22977 2.32466 0 4.69763 0 7.65629C0 10.621 2.22977 13 5.00283 13C7.77589 13 10 10.621 10 7.65629C10 7.36647 9.80758 7.15513 9.53028 7.15513C9.26429 7.15513 9.08885 7.36647 9.08885 7.65629C9.08885 10.0836 7.27221 12.0279 5.00283 12.0279C2.73345 12.0279 0.911149 10.0836 0.911149 7.65629C0.911149 5.23502 2.73345 3.2968 5.00283 3.2968C5.43294 3.2968 5.82909 3.33302 6.16865 3.41152L4.47651 5.20483C4.39162 5.30144 4.34635 5.4222 4.34635 5.549C4.34635 5.82675 4.53877 6.03205 4.79344 6.03205Z" fill="#797979"/>
</svg>
