<svg width="8" height="11" viewBox="0 0 8 11" fill="none" xmlns="http://www.w3.org/2000/svg">
<path d="M1.1497 11H6.8503C7.62275 11 8 10.6392 8 9.84982V5.71143C8 5.00103 7.68862 4.63455 7.0479 4.57253V3.15172C7.0479 1.02614 5.56886 0 4 0C2.43114 0 0.952096 1.02614 0.952096 3.15172V4.60072C0.365269 4.68529 0 5.04613 0 5.71143V9.84982C0 10.6392 0.377246 11 1.1497 11ZM1.91617 3.03332C1.91617 1.61814 2.88024 0.868273 4 0.868273C5.11976 0.868273 6.08383 1.61814 6.08383 3.03332V4.56689L1.91617 4.57253V3.03332Z" fill="#9E9E9E"/>
</svg>
