<svg width="72" height="1012" viewBox="0 0 72 1012" fill="none" xmlns="http://www.w3.org/2000/svg">
<rect x="0.5" y="0.5" width="71" height="1011" fill="white"/>
<rect x="0.5" y="0.5" width="71" height="1011" stroke="#D3D3D3"/>
<g clip-path="url(#clip0_342_1775)">
<path d="M40 42V44H29V42H40ZM45 35V37H27V35H45ZM43 28V30H32V28H43Z" fill="#A4A4A4"/>
</g>
<g clip-path="url(#clip1_342_1775)">
<path d="M36 926C30.477 926 26 921.523 26 916C26 910.477 30.477 906 36 906C41.523 906 46 910.477 46 916C46 921.523 41.523 926 36 926ZM35 915V921H37V915H35ZM35 911V913H37V911H35Z" fill="#A4A4A4"/>
</g>
<g clip-path="url(#clip2_342_1775)">
<path d="M45 967.999C45.5304 967.999 46.0391 968.21 46.4142 968.585C46.7893 968.96 47 969.469 47 969.999V974C47 974.53 46.7893 975.039 46.4142 975.414C46.0391 975.789 45.5304 976 45 976H43.938C43.6942 977.933 42.7533 979.711 41.2917 981C39.8302 982.289 37.9486 983 36 983V981C37.5913 981 39.1174 980.368 40.2426 979.242C41.3679 978.117 42 976.591 42 975V968.999C42 967.408 41.3679 965.882 40.2426 964.756C39.1174 963.631 37.5913 962.999 36 962.999C34.4087 962.999 32.8826 963.631 31.7574 964.756C30.6321 965.882 30 967.408 30 968.999V976H27C26.4696 976 25.9609 975.789 25.5858 975.414C25.2107 975.039 25 974.53 25 974V969.999C25 969.469 25.2107 968.96 25.5858 968.585C25.9609 968.21 26.4696 967.999 27 967.999H28.062C28.306 966.066 29.2471 964.288 30.7086 963C32.1701 961.711 34.0516 961 36 961C37.9484 961 39.8299 961.711 41.2914 963C42.7529 964.288 43.694 966.066 43.938 967.999H45ZM31.76 975.785L32.82 974.089C33.7731 974.686 34.8754 975.001 36 975C37.1246 975.001 38.2269 974.686 39.18 974.089L40.24 975.785C38.9693 976.581 37.4995 977.002 36 977C34.5005 977.002 33.0307 976.581 31.76 975.785Z" fill="#A4A4A4"/>
</g>
<defs>
<clipPath id="clip0_342_1775">
<rect width="24" height="24" fill="white" transform="translate(24 24)"/>
</clipPath>
<clipPath id="clip1_342_1775">
<rect width="24" height="24" fill="white" transform="translate(24 904)"/>
</clipPath>
<clipPath id="clip2_342_1775">
<rect width="24" height="24" fill="white" transform="translate(24 960)"/>
</clipPath>
</defs>
</svg>
