<svg width="66" height="28" viewBox="0 0 66 28" fill="none" xmlns="http://www.w3.org/2000/svg">
<g clip-path="url(#clip0_342_1739)">
<path d="M18.7239 20.7824L12.2372 14.544C12.0818 14.3909 12 14.2055 12 14.004C12 13.7945 12.09 13.593 12.2454 13.464L18.7239 7.21762C18.863 7.0806 19.0429 7 19.2556 7C19.681 7 20 7.32239 20 7.74151C20 7.93495 19.9182 8.12838 19.7873 8.2654L13.8323 14.004L19.7873 19.7427C19.9182 19.8797 20 20.0651 20 20.2666C20 20.6857 19.681 21 19.2556 21C19.0429 21 18.863 20.9194 18.7239 20.7824Z" fill="#737373"/>
<path d="M45.7444 21C45.9571 21 46.137 20.9194 46.2761 20.7825L52.7628 14.5397C52.9182 14.3867 53 14.2014 53 14C53 13.7906 52.9182 13.5972 52.7628 13.4603L46.2843 7.22555C46.137 7.08055 45.9571 7 45.7444 7C45.319 7 45 7.32221 45 7.74108C45 7.93441 45.0818 8.12773 45.2127 8.26467L51.1677 14L45.2127 19.7353C45.0818 19.8723 45 20.0575 45 20.2589C45 20.6778 45.319 21 45.7444 21Z" fill="#BFBFBF"/>
</g>
<defs>
<clipPath id="clip0_342_1739">
<rect width="66" height="28" fill="white"/>
</clipPath>
</defs>
</svg>
