<svg width="33" height="28" viewBox="0 0 33 28" fill="none" xmlns="http://www.w3.org/2000/svg">
<path d="M17 23C17.1348 23 17.3538 22.9495 17.5644 22.8317C22.3574 20.147 24 19.0109 24 15.9391V9.50099C24 8.61733 23.6209 8.3396 22.9049 8.03663C21.911 7.62426 18.7016 6.47129 17.7076 6.12624C17.4801 6.0505 17.2359 6 17 6C16.7641 6 16.5199 6.06733 16.3008 6.12624C15.3069 6.41238 12.089 7.63267 11.0951 8.03663C10.3875 8.33119 10 8.61733 10 9.50099V15.9391C10 19.0109 11.651 20.1386 16.4356 22.8317C16.6546 22.9495 16.8652 23 17 23ZM17.3369 7.43069C18.6089 7.93564 21.077 8.82772 22.3827 9.27376C22.6101 9.35792 22.6606 9.47574 22.6606 9.76188V15.6277C22.6606 18.2282 21.414 18.9099 17.5223 21.2748C17.278 21.4262 17.1432 21.4683 17.0084 21.4767V7.35495C17.0927 7.35495 17.2022 7.3802 17.3369 7.43069Z" fill="#737373"/>
</svg>
