<svg width="33" height="28" viewBox="0 0 33 28" fill="none" xmlns="http://www.w3.org/2000/svg">
<path d="M9.66327 21H24.3367C26.1179 21 27 20.1526 27 18.4742V8.5258C27 6.84737 26.1179 6 24.3367 6H9.66327C7.89059 6 7 6.83922 7 8.5258V18.4742C7 20.1608 7.89059 21 9.66327 21ZM9.68024 19.6882C8.83206 19.6882 8.36556 19.2564 8.36556 18.409V8.59098C8.36556 7.74362 8.83206 7.31179 9.68024 7.31179H13.4631V19.6882H9.68024ZM24.3198 7.31179C25.1595 7.31179 25.6344 7.74362 25.6344 8.59098V18.409C25.6344 19.2564 25.1595 19.6882 24.3198 19.6882H14.7947V7.31179H24.3198ZM11.8261 10.3346C12.0891 10.3346 12.3096 10.1146 12.3096 9.87833C12.3096 9.63389 12.0891 9.42205 11.8261 9.42205H10.011C9.75657 9.42205 9.52757 9.63389 9.52757 9.87833C9.52757 10.1146 9.75657 10.3346 10.011 10.3346H11.8261ZM11.8261 12.4449C12.0891 12.4449 12.3096 12.2249 12.3096 11.9804C12.3096 11.736 12.0891 11.5323 11.8261 11.5323H10.011C9.75657 11.5323 9.52757 11.736 9.52757 11.9804C9.52757 12.2249 9.75657 12.4449 10.011 12.4449H11.8261ZM11.8261 14.547C12.0891 14.547 12.3096 14.3433 12.3096 14.0989C12.3096 13.8544 12.0891 13.6426 11.8261 13.6426H10.011C9.75657 13.6426 9.52757 13.8544 9.52757 14.0989C9.52757 14.3433 9.75657 14.547 10.011 14.547H11.8261Z" fill="#737373"/>
</svg>
