<svg width="156" height="28" viewBox="0 0 156 28" fill="none" xmlns="http://www.w3.org/2000/svg">
<g clip-path="url(#clip0_342_1730)">
<path d="M16.5 23C21.15 23 25 19.1417 25 14.5C25 9.85 21.1417 6 16.4917 6C11.85 6 8 9.85 8 14.5C8 19.1417 11.8583 23 16.5 23ZM16.5 21.5833C12.5667 21.5833 9.425 18.4333 9.425 14.5C9.425 10.5667 12.5583 7.41667 16.4917 7.41667C20.425 7.41667 23.575 10.5667 23.5833 14.5C23.5917 18.4333 20.4333 21.5833 16.5 21.5833ZM16.5 10.2583C16.1417 10.2583 15.875 10.5167 15.875 10.8833V15.05L15.9417 16.8083L15.1083 15.8083L14.1167 14.8083C14 14.7 13.85 14.625 13.675 14.625C13.3333 14.625 13.075 14.8917 13.075 15.225C13.075 15.4 13.125 15.55 13.2333 15.6583L16.0167 18.4333C16.1833 18.6 16.325 18.6667 16.5 18.6667C16.6833 18.6667 16.8333 18.5917 16.9917 18.4333L19.7667 15.6583C19.875 15.55 19.9417 15.4 19.9417 15.225C19.9417 14.8917 19.675 14.625 19.3333 14.625C19.15 14.625 19 14.6917 18.8917 14.8083L17.9083 15.8083L17.0583 16.8167L17.125 15.05V10.8833C17.125 10.5167 16.8667 10.2583 16.5 10.2583Z" fill="#737373"/>
<path d="M57.5042 16.4085C57.8676 16.4085 58.1718 16.1054 58.1718 15.7519V7.10634L58.1211 5.8436L58.6958 6.44129L59.9718 7.80505C60.0901 7.93974 60.2676 8.00709 60.4282 8.00709C60.7831 8.00709 61.0451 7.75454 61.0451 7.40939C61.0451 7.23261 60.9775 7.09792 60.8507 6.97164L57.9944 4.22729C57.8254 4.05893 57.6732 4 57.5042 4C57.3352 4 57.1831 4.05893 57.0141 4.22729L54.1577 6.97164C54.031 7.09792 53.9549 7.23261 53.9549 7.40939C53.9549 7.75454 54.2169 8.00709 54.5634 8.00709C54.7324 8.00709 54.9099 7.93974 55.0282 7.80505L56.3127 6.44129L56.8873 5.8436L56.8282 7.10634V15.7519C56.8282 16.1054 57.1408 16.4085 57.5042 16.4085ZM52.6535 23H62.3465C64.1127 23 65 22.1245 65 20.3903V11.9889C65 10.2548 64.1127 9.37926 62.3465 9.37926H59.9887V10.7346H62.3211C63.1577 10.7346 63.6394 11.1892 63.6394 12.0647V20.3146C63.6394 21.1901 63.1577 21.6447 62.3211 21.6447H52.6704C51.8254 21.6447 51.3606 21.1901 51.3606 20.3146V12.0647C51.3606 11.1892 51.8254 10.7346 52.6704 10.7346H55.0113V9.37926H52.6535C50.8873 9.37926 50 10.2548 50 11.9889V20.3903C50 22.1245 50.8873 23 52.6535 23Z" fill="#737373"/>
<path d="M99 21C99.4158 21 99.7636 20.6758 99.7636 20.2767V14.7482H105.245C105.652 14.7482 106 14.4074 106 14C106 13.5926 105.652 13.2601 105.245 13.2601H99.7636V7.72328C99.7636 7.32423 99.4158 7 99 7C98.5842 7 98.2448 7.32423 98.2448 7.72328V13.2601H92.7552C92.3479 13.2601 92 13.5926 92 14C92 14.4074 92.3479 14.7482 92.7552 14.7482H98.2448V20.2767C98.2448 20.6758 98.5842 21 99 21Z" fill="#737373"/>
<path d="M133.671 18.243H135.126V19.4845C135.126 21.1561 136.01 22 137.797 22H146.337C148.107 22 149 21.1561 149 19.4845V11.2726C149 9.60095 148.107 8.75704 146.337 8.75704H144.874V7.51551C144.874 5.84391 143.981 5 142.212 5H133.671C131.885 5 131 5.84391 131 7.51551V15.7274C131 17.399 131.885 18.243 133.671 18.243ZM133.688 16.9365C132.837 16.9365 132.37 16.4983 132.37 15.6544V7.58854C132.37 6.74463 132.837 6.30644 133.688 6.30644H142.186C143.028 6.30644 143.505 6.74463 143.505 7.58854V8.75704H137.797C136.01 8.75704 135.126 9.59284 135.126 11.2726V16.9365H133.688ZM137.814 20.6936C136.972 20.6936 136.495 20.2554 136.495 19.4115V11.3456C136.495 10.5017 136.972 10.0635 137.814 10.0635H146.312C147.154 10.0635 147.63 10.5017 147.63 11.3456V19.4115C147.63 20.2554 147.154 20.6936 146.312 20.6936H137.814Z" fill="#737373"/>
</g>
<defs>
<clipPath id="clip0_342_1730">
<rect width="156" height="28" fill="white"/>
</clipPath>
</defs>
</svg>
